<svg width="58" height="57" viewBox="0 0 58 57" fill="none" xmlns="http://www.w3.org/2000/svg">
<path d="M0.00140504 14.4531C0.193895 14.2859 0.338614 14.4756 0.490359 14.5332C9.14118 17.769 17.7892 21.0132 26.4442 24.2406C26.8601 24.3952 26.9908 24.5876 26.9894 25.0373C26.9739 35.4317 26.9767 45.8262 26.9767 56.2207C26.9767 56.4048 26.9767 56.5888 26.9767 56.8291C17.9536 53.4457 8.97679 50.0793 0 46.7128C0.00140504 35.9586 0.00140504 25.2059 0.00140504 14.4531ZM7.1952 40.2988C7.1952 41.524 7.20363 42.6986 7.18818 43.8732C7.18396 44.1626 7.36521 44.1964 7.56051 44.2694C8.55809 44.639 9.55286 45.0141 10.549 45.3878C11.8164 45.8642 13.0837 46.3405 14.389 46.8322C14.389 45.6056 14.3862 44.4451 14.3918 43.2845C14.3932 43.0976 14.3553 42.974 14.1586 42.9009C11.8529 42.0424 9.55005 41.1798 7.1952 40.2988Z" fill="white"/>
<path d="M0.00158691 10.6314C0.194077 10.7958 0.338796 10.6089 0.490541 10.5513C9.78768 7.06959 19.082 3.58369 28.3764 0.0977865C28.6012 0.0134842 28.8021 -0.0483375 29.0676 0.0514202C38.4631 3.5865 47.8628 7.10893 57.2611 10.6342C57.3089 10.6524 57.3497 10.6848 57.4002 10.7143C57.337 10.9025 57.1558 10.8885 57.0335 10.9349C53.7345 12.1811 50.4313 13.4147 47.1322 14.6624C46.8442 14.772 46.6152 14.7439 46.3426 14.6217C43.059 13.1408 39.7698 11.6753 36.4876 10.1916C36.1378 10.0328 35.8498 10.023 35.4915 10.1775C33.2842 11.1358 31.067 12.0701 28.7712 13.048C32.3639 14.5318 35.8835 15.9832 39.5366 17.4908C37.9826 18.0767 36.5649 18.6148 35.1444 19.1487C33.1703 19.8892 31.1921 20.6198 29.2236 21.3743C28.9032 21.4965 28.6405 21.4895 28.3216 21.3701C19.0483 17.8856 9.77082 14.4095 0.490541 10.9363C0.338796 10.8787 0.194077 10.6918 0.00158691 10.8562C0.00158691 10.7803 0.00158691 10.7058 0.00158691 10.6314Z" fill="white"/>
<path d="M30.5751 56.8105C30.5751 56.5842 30.5751 56.417 30.5751 56.2484C30.5751 45.8357 30.5779 35.4229 30.5638 25.0102C30.5638 24.5831 30.6833 24.3962 31.0795 24.2501C33.7772 23.2595 36.465 22.2423 39.1557 21.2349C39.2751 21.1899 39.3973 21.1548 39.5673 21.0986C39.5673 24.1054 39.5673 27.0714 39.5673 30.0922C41.7662 29.2675 43.9047 28.4399 46.0642 27.6727C46.6122 27.4774 46.7864 27.2358 46.778 26.6513C46.7401 24.0492 46.7611 21.4456 46.7611 18.8421C46.7611 18.6046 46.7176 18.3897 47.045 18.2688C50.5252 16.979 53.9985 15.6723 57.5518 14.3403C57.5518 14.5398 57.5518 14.6958 57.5518 14.8518C57.5518 25.3024 57.5504 35.7517 57.556 46.2024C57.556 46.5199 57.5406 46.7265 57.1612 46.8684C48.3854 50.1421 39.6165 53.4356 30.8463 56.7247C30.7774 56.75 30.7072 56.7683 30.5751 56.8105Z" fill="white"/>
</svg>
