<svg width="48" height="58" viewBox="0 0 48 58" fill="none" xmlns="http://www.w3.org/2000/svg">
<path d="M0 28.6328C0 19.7526 0 10.8702 0 1.99003C0 0.104183 0.0889755 0.0173775 1.9618 0.0173775C10.5946 0.0173775 19.2274 0.026058 27.858 1.64292e-05C28.5807 -0.00215371 29.0668 0.210519 29.5702 0.724841C35.4383 6.70573 41.3302 12.6671 47.2286 18.6176C47.667 19.0581 47.8645 19.49 47.8645 20.128C47.8428 31.914 47.8515 43.7 47.8471 55.486C47.8471 57.0225 47.6041 57.246 46.0242 57.246C31.2912 57.246 16.5603 57.246 1.82725 57.246C0.117187 57.246 0 57.1288 0 55.4014C0 46.4778 0 37.5542 0 28.6328ZM19.6072 18.5699C21.9292 16.1328 22.4544 13.5069 20.7877 10.5881C18.8324 7.16146 14.2795 6.05035 10.9961 8.18142C7.95571 10.1562 6.35849 14.579 9.37064 17.9405C9.89364 18.5243 9.75041 18.8238 9.16231 19.1449C8.28123 19.6267 7.53905 20.2778 6.90103 21.0525C4.85025 23.5395 4.09721 26.5321 3.56987 29.6072C3.29426 31.2239 3.56553 31.5277 5.19747 31.5299C10.6337 31.5342 16.0677 31.5321 21.5039 31.5321C22.6649 31.5321 23.8281 31.5451 24.9891 31.5256C25.8333 31.5125 26.3498 31.1067 26.2174 30.2061C25.8311 27.5781 25.1258 25.0455 23.8563 22.6909C22.8884 20.8962 21.3389 19.6788 19.6072 18.5699ZM44.6483 19.2231C39.2208 13.8997 34.0255 8.80425 28.8216 3.70227C28.8216 8.47439 28.8259 13.3138 28.8172 18.1554C28.815 18.954 29.1818 19.2383 29.9652 19.2339C34.733 19.2122 39.5008 19.2231 44.6483 19.2231ZM33.98 34.8025C31.6167 34.8025 29.2556 34.7938 26.8923 34.8046C24.9414 34.8133 24.7374 35.0216 24.7243 36.9205C24.7178 37.832 24.7395 38.7456 24.72 39.6571C24.6961 40.7942 25.2452 41.3324 26.3715 41.3324C31.4279 41.3302 36.4843 41.3324 41.5429 41.3302C42.5932 41.3302 43.1618 40.8159 43.1726 39.7482C43.1813 38.713 43.1813 37.6757 43.1748 36.6384C43.164 35.2278 42.7625 34.8155 41.3215 34.8068C38.8714 34.7916 36.4257 34.8025 33.98 34.8025ZM34.9413 50.9917C36.9704 50.9917 38.9973 51.0069 41.0264 50.9852C42.2786 50.9721 42.743 50.5077 42.7733 49.2621C42.8016 48.1857 42.7733 47.1093 42.7733 46.0329C42.7733 44.9587 42.1722 44.3923 41.1674 44.3858C36.9878 44.3532 32.8059 44.3641 28.6262 44.3858C27.6996 44.3901 27.1744 44.9066 27.1614 45.8636C27.1462 46.9813 27.1071 48.0989 27.1375 49.2143C27.1744 50.549 27.6345 50.9786 28.9778 50.9873C30.9678 51.0025 32.9535 50.9917 34.9413 50.9917ZM13.3008 50.9917C15.2495 50.9917 17.1961 51.0003 19.1449 50.9895C20.6618 50.9808 21.1284 50.5207 21.1675 48.9908C21.1892 48.1206 21.187 47.2504 21.1675 46.3801C21.1349 44.8741 20.6467 44.3858 19.1319 44.3728C17.0594 44.3554 14.9869 44.3684 12.9145 44.3684C11.1328 44.3684 9.34894 44.3337 7.56726 44.3814C5.94183 44.4248 5.53384 44.8827 5.51431 46.4908C5.50346 47.4023 5.50129 48.3137 5.51431 49.2252C5.53601 50.562 5.95919 50.9808 7.33071 50.9895C9.3229 51.0025 11.3107 50.9917 13.3008 50.9917ZM13.2595 41.3346C15.3298 41.3346 17.4001 41.3259 19.4683 41.3389C20.5251 41.3454 21.1132 40.8506 21.1436 39.7938C21.1783 38.6349 21.1979 37.4739 21.1436 36.3194C21.1024 35.4426 20.664 34.809 19.6853 34.8068C15.5034 34.8003 11.3238 34.7981 7.14191 34.8198C6.03297 34.8263 5.49695 35.4492 5.50997 36.5603C5.52082 37.5542 5.49912 38.5481 5.51431 39.5399C5.53601 40.894 5.94834 41.3172 7.29599 41.3302C9.286 41.3476 11.2717 41.3346 13.2595 41.3346ZM35.8246 23.6762C33.917 23.6762 32.0117 23.6567 30.1063 23.6827C28.7456 23.7022 28.2009 24.21 28.1401 25.5338C28.0902 26.5668 28.1336 27.6063 28.1336 28.6414C28.1336 29.7287 28.7586 30.2647 29.7612 30.2712C33.6978 30.3016 37.6366 30.3038 41.5733 30.2712C42.6605 30.2625 43.2182 29.6441 43.1835 28.5134C43.1531 27.4783 43.1965 26.4409 43.1726 25.4058C43.1444 24.1666 42.6713 23.6957 41.4213 23.6827C39.555 23.6632 37.6887 23.6762 35.8246 23.6762Z" fill="white"/>
<path d="M14.7526 29.5225C12.0551 29.5225 9.35984 29.5247 6.66236 29.5203C6.224 29.5203 5.67061 29.6505 5.83771 28.8693C6.37156 26.3541 6.99439 23.878 8.67408 21.8185C9.25784 21.1045 9.90454 20.4969 10.7357 20.0737C12.3459 19.2534 12.411 18.8281 11.1893 17.539C8.83684 15.0542 9.44447 11.3064 12.4631 9.67877C14.5269 8.56549 17.2396 9.15794 18.724 11.046C20.1606 12.8732 20.0846 15.5967 18.5438 17.3372C18.3507 17.5542 18.1359 17.7517 17.9449 17.9709C17.3134 18.6935 17.3633 19.325 18.2509 19.7699C22.0226 21.6623 22.997 25.2451 23.8173 28.9279C24.0148 29.8111 23.3203 29.5073 22.9688 29.5095C20.23 29.5333 17.4913 29.5225 14.7526 29.5225Z" fill="white"/>
<path d="M33.8324 39.3512C31.723 39.3512 29.6093 39.2991 27.5021 39.3729C26.3823 39.4119 26.6883 38.2596 26.6753 38.1489C26.6645 38.0665 26.2413 36.7687 27.4826 36.7796C31.786 36.8186 36.0894 36.81 40.3927 36.7774C41.0828 36.7731 41.1913 37.0205 41.1957 37.6303C41.2087 39.3512 41.2347 39.3512 39.5442 39.3512C37.6388 39.3512 35.7356 39.3512 33.8324 39.3512Z" fill="white"/>
<path d="M34.8784 48.9934C33.266 48.9934 31.6493 48.9348 30.0412 49.0129C28.865 49.0715 29.1948 48.2837 29.1883 47.7C29.1818 47.1053 28.8888 46.3718 30.0499 46.3935C33.3572 46.4565 36.6666 46.4456 39.9739 46.4C41.1978 46.3827 40.7182 47.2312 40.7486 47.7716C40.779 48.3076 41.0676 49.0541 39.963 49.0085C38.2703 48.9413 36.5733 48.9934 34.8784 48.9934Z" fill="white"/>
<path d="M13.4158 46.4149C15.0348 46.4149 16.6537 46.467 18.2704 46.3954C19.349 46.3476 19.1341 47.0551 19.0886 47.6237C19.0452 48.1705 19.5183 49.0212 18.2986 49.0039C14.9805 48.9605 11.6602 48.9539 8.34206 49.0104C7.257 49.0277 7.4892 48.3376 7.5326 47.7799C7.57601 47.2374 7.08339 46.3606 8.31168 46.3997C10.0109 46.4561 11.7145 46.4149 13.4158 46.4149Z" fill="white"/>
<path d="M13.2616 39.3468C11.6058 39.3468 9.94568 39.3012 8.29204 39.362C7.04639 39.4075 7.57807 38.5221 7.53467 37.9991C7.48909 37.4653 7.21132 36.7556 8.31808 36.7773C11.6297 36.8381 14.9457 36.8403 18.2573 36.7795C19.5789 36.7556 19.019 37.6541 19.0863 38.2183C19.1579 38.8108 19.2968 39.4444 18.2291 39.375C16.5798 39.2708 14.9196 39.3468 13.2616 39.3468Z" fill="white"/>
<path d="M35.575 28.2782C34.0429 28.2782 32.5086 28.2283 30.9786 28.2956C29.8719 28.3433 30.1518 27.5838 30.1974 27.0499C30.243 26.5248 29.7048 25.6437 30.9461 25.6589C34.0928 25.6979 37.2416 25.6828 40.3905 25.6611C40.9461 25.6567 41.1739 25.7609 41.1956 26.3946C41.2607 28.2826 41.2955 28.2804 39.427 28.2804C38.1444 28.2782 36.8597 28.2782 35.575 28.2782Z" fill="white"/>
</svg>
