<svg width="51" height="57" viewBox="0 0 51 57" fill="none" xmlns="http://www.w3.org/2000/svg">
<path fill-rule="evenodd" clip-rule="evenodd" d="M0 51.625V21H50.7501V51.625V56.2386H0V51.625ZM36.9093 27.125H41.5229V31.7387H36.9093V27.125ZM32.2957 27.125H27.682V31.7387H32.2957V27.125ZM18.4545 27.125H23.0681V31.7387H18.4545V27.125ZM13.8409 27.125H9.22727V31.7387H13.8409V27.125ZM36.9093 36.3527H41.5229V40.9663H36.9093V36.3527ZM32.2957 36.3527H27.682V40.9663H32.2957V36.3527ZM18.4545 36.3527H23.0681V40.9663H18.4545V36.3527ZM13.8409 36.3527H9.22727V40.9663H13.8409V36.3527ZM27.682 45.5794H32.2957V50.1931H27.682V45.5794ZM23.0681 45.5794H18.4545V50.1931H23.0681V45.5794ZM9.22727 45.5794H13.8409V50.1931H9.22727V45.5794Z" fill="white"/>
<rect x="37.6249" width="2.625" height="13.125" fill="white"/>
<rect x="9.62512" width="2.625" height="13.125" fill="white"/>
<path fill-rule="evenodd" clip-rule="evenodd" d="M8.75015 5.48828H4.61364H0V18.3749H50.7501V5.48828H46.1364H41.1252V14.0002H36.7502V5.48828H13.1252V14.0001H8.75015V5.48828Z" fill="white"/>
</svg>
