<svg width="50" height="57" viewBox="0 0 50 57" fill="none" xmlns="http://www.w3.org/2000/svg">
<path d="M45.8829 18.0846C40.1526 12.3038 34.4287 6.51241 28.728 0.702065C28.2389 0.204517 27.7688 -0.00209229 27.0646 1.5961e-05C18.6801 0.025315 10.2934 0.0147737 1.9068 0.0147737C0.0873753 0.016882 0.000937002 0.0991039 0.000937002 1.93328C-0.00117125 10.5603 0.000937002 19.1872 0.000937002 27.8142V53.8195C0.000937002 55.4977 0.114783 55.6115 1.77609 55.6115C10.4579 55.6136 19.1376 55.6136 27.8172 55.6136C24.5452 52.9594 22.4538 48.9073 22.4538 44.3661C22.4538 43.9149 22.4749 43.468 22.515 43.0274H6.97504C6.68621 43.0274 6.45219 42.7934 6.45219 42.5066V41.5052C6.45219 41.2185 6.68621 40.9845 6.97504 40.9845H22.8523C23.3393 38.9437 24.2585 37.0716 25.5087 35.4714H6.97504C6.68621 35.4714 6.45219 35.2374 6.45219 34.9485V33.9492C6.45219 33.6604 6.68621 33.4264 6.97504 33.4264H27.4441C27.3597 33.2556 27.4694 33.3062 27.4441 33.4264C30.0204 31.0546 33.1448 29.8951 36.9228 29.8951C40.5912 29.8951 43.9391 31.2591 46.4879 33.5065C46.4879 28.8557 46.4922 24.2028 46.5006 19.552C46.5006 18.9321 46.3087 18.5147 45.8829 18.0846ZM21.6464 27.3905C21.6464 27.6793 21.4145 27.9133 21.1256 27.9133H6.97504C6.68621 27.9133 6.45219 27.6793 6.45219 27.3905V26.3911C6.45219 26.1023 6.68621 25.8704 6.97504 25.8704H21.1256C21.4145 25.8704 21.6464 26.1023 21.6464 26.3911V27.3905ZM29.1117 18.6834C28.3506 18.6855 27.9943 18.4093 27.9964 17.6335C28.0049 12.932 28.0007 8.23064 28.0007 3.59459C33.0541 8.55109 38.1034 13.5013 43.3762 18.6728C38.3754 18.6728 33.7435 18.6644 29.1117 18.6834Z" fill="white"/>
<path d="M49.4122 44.4926C49.4059 51.3128 43.7979 56.9144 36.9904 56.8954C30.1617 56.8786 24.5559 51.258 24.5938 44.4652C24.6318 37.6407 30.168 32.0792 36.9925 32.0918C43.8907 32.1087 49.3489 37.6091 49.4122 44.4926ZM36.1892 39.6415C36.1892 39.9113 36.1892 40.0589 36.1892 40.2065C36.1892 43.8496 36.1892 47.4926 36.1892 51.1357C36.1892 51.2854 36.1829 51.4372 36.1998 51.5847C36.2567 52.0296 36.5898 52.3247 37.0178 52.3226C37.4478 52.3205 37.7704 52.0254 37.821 51.5763C37.84 51.414 37.8358 51.2474 37.8358 51.083C37.8358 47.4694 37.8358 43.8559 37.8358 40.2423C37.8358 40.0842 37.8358 39.9261 37.8358 39.7532C38.0424 39.7975 38.1098 39.9451 38.2047 40.0484C39.5962 41.5389 40.9792 43.0358 42.3727 44.5242C42.7649 44.9437 43.254 44.9964 43.6039 44.6886C43.9729 44.3661 43.994 43.82 43.6124 43.4068C41.6454 41.2838 39.6742 39.165 37.6966 37.0546C37.2623 36.5908 36.7521 36.5845 36.3241 37.0399C34.334 39.1608 32.3522 41.2901 30.3768 43.4237C29.9867 43.8453 29.9994 44.326 30.3641 44.6612C30.7162 44.9838 31.2053 44.9458 31.5995 44.5453C31.9664 44.17 32.3185 43.78 32.6769 43.3963C33.8238 42.1756 34.9664 40.9507 36.1892 39.6415Z" fill="white"/>
</svg>
