<svg width="463" height="177" viewBox="0 0 463 177" fill="none" xmlns="http://www.w3.org/2000/svg">
<path d="M178.67 0.0170898C178.686 0.294344 178.728 0.580001 178.728 0.857255C178.728 6.86444 178.745 12.8716 178.712 18.8704C178.703 19.6434 178.938 19.7778 179.653 19.7778C185.836 19.7526 192.02 19.7694 198.212 19.7442C198.842 19.7442 199.035 19.8786 199.018 20.5339C198.976 22.6091 198.976 24.6928 199.018 26.768C199.035 27.4065 198.808 27.5073 198.245 27.4989C192.037 27.4821 185.819 27.4989 179.611 27.4737C178.913 27.4737 178.712 27.6333 178.712 28.3559C178.737 36.0266 178.72 43.7057 178.737 51.3764C178.737 53.0651 178.888 54.7539 179.317 56.4006C180.249 59.9629 182.593 62.0885 186.113 62.9791C187.987 63.458 189.894 63.6428 191.827 63.6428C194.011 63.6428 196.187 63.6596 198.371 63.6344C198.867 63.626 199.027 63.752 199.018 64.2729C198.993 66.4322 198.993 68.583 199.018 70.7422C199.027 71.2211 198.901 71.3387 198.422 71.3387C192.751 71.3135 187.08 71.3808 181.409 71.2715C177.468 71.1959 173.612 70.5322 170.075 68.6334C165.227 66.0205 162.849 61.8617 162.816 56.4258C162.748 47.0832 162.79 37.7405 162.816 28.3979C162.816 27.6501 162.631 27.4653 161.892 27.4737C157.968 27.5157 154.036 27.4821 150.112 27.5073C149.549 27.5073 149.373 27.3897 149.381 26.7932C149.423 24.718 149.423 22.6343 149.381 20.5591C149.373 19.9374 149.516 19.7442 150.171 19.7442C154.095 19.7778 158.027 19.7358 161.95 19.7778C162.69 19.7862 162.816 19.5509 162.807 18.8788C162.79 12.5944 162.807 6.30153 162.807 0.0170898C168.092 0.0170898 173.377 0.0170898 178.67 0.0170898Z" fill="#234187"/>
<path d="M15.7199 0.0168033C15.7367 0.294058 15.7787 0.579714 15.7787 0.856969C15.7787 24.0539 15.7787 47.2509 15.8039 70.4479C15.8039 71.2124 15.5855 71.3469 14.8713 71.3469C9.92274 71.3132 4.96576 71.3301 0.0171879 71.3301C0.0171879 47.7886 0.0171879 24.2556 0.00038459 0.714141C-0.00801707 0.134427 0.118008 0 0.697722 0C5.70511 0.025205 10.7125 0.0168033 15.7199 0.0168033Z" fill="#234187"/>
<path d="M106.306 72.2544C99.7027 72.2292 93.2334 71.4142 87.033 69.0113C81.6476 66.9193 76.9762 63.8359 73.6156 59.0302C70.549 54.6445 69.3223 49.7296 69.5912 44.4281C70.0785 34.8754 75.0691 28.2717 83.2859 23.8693C87.9908 21.3488 93.0822 20.0549 98.35 19.3996C103.307 18.7863 108.272 18.7442 113.238 19.2736C120.06 19.9961 126.571 21.7268 132.352 25.6C137.645 29.1455 141.274 33.926 142.635 40.2357C144.895 50.7546 140.72 60.4501 131.562 66.1128C126.899 68.9945 121.791 70.6077 116.414 71.4814C113.061 72.0275 109.692 72.2796 106.306 72.2544ZM105.718 63.7855C108.516 63.7855 110.81 63.5755 113.061 63.0042C118.884 61.5255 123.143 58.2236 125.135 52.4013C126.344 48.8558 126.479 45.2011 125.815 41.5463C124.824 36.0433 121.925 31.8424 116.733 29.5908C110.028 26.6838 103.164 26.6838 96.4009 29.3471C91.6623 31.2207 88.6377 34.825 87.2515 39.74C86.3861 42.815 86.2517 45.9572 86.739 49.1078C87.6043 54.6781 90.3517 58.9378 95.4851 61.5087C98.8541 63.2058 102.475 63.7351 105.718 63.7855Z" fill="#234187"/>
<path d="M311.055 71.2966C303.871 71.2966 296.679 71.3639 289.496 71.2714C285.329 71.221 281.229 70.6077 277.431 68.7089C272.928 66.4573 270.416 62.8698 270.248 57.77C270.122 54.1153 270.735 50.6706 273.188 47.7888C275.281 45.3355 278.07 44.0249 281.078 43.1427C285.11 41.9581 289.261 41.5548 293.445 41.4288C301.04 41.1935 308.635 41.3615 316.23 41.3363C316.894 41.3363 317.104 41.1935 317.079 40.4962C317.02 38.8578 317.129 37.2111 316.734 35.598C315.911 32.2625 313.617 30.3638 310.509 29.28C308.24 28.4902 305.879 28.1457 303.493 28.0533C294.487 27.692 285.48 27.9777 276.474 27.8937C276.163 27.8937 275.852 27.8685 275.549 27.9021C275.129 27.9441 275.037 27.7761 275.037 27.3812C275.054 25.0203 275.054 22.6595 275.037 20.2986C275.037 19.8365 275.205 19.7525 275.617 19.7525C286.035 19.7609 296.453 19.7021 306.879 19.7861C311.651 19.8197 316.39 20.3406 320.96 21.8697C324.136 22.9283 327.043 24.449 329.37 26.9023C332.269 29.9605 333.554 33.6908 333.571 37.8244C333.63 48.755 333.588 59.694 333.613 70.6245C333.613 71.2798 333.378 71.347 332.832 71.347C325.573 71.3302 318.305 71.3386 311.046 71.3386C311.055 71.3134 311.055 71.305 311.055 71.2966ZM306.241 63.5671C306.241 63.5839 306.241 63.5923 306.241 63.6091C309.626 63.6091 313.012 63.5923 316.398 63.6259C317.028 63.6343 317.146 63.4327 317.138 62.853C317.112 58.4421 317.104 54.0312 317.146 49.6204C317.154 48.9482 316.936 48.8474 316.331 48.8474C310.769 48.8726 305.199 48.839 299.637 48.8726C297.486 48.881 295.335 48.9818 293.226 49.4691C289.656 50.2841 287.051 52.1073 286.883 56.2493C286.757 59.3159 287.791 61.7356 291.092 62.8446C292.764 63.3991 294.503 63.5419 296.243 63.5671C299.578 63.5923 302.905 63.5671 306.241 63.5671Z" fill="#234187"/>
<path d="M63.0633 19.7608C54.0567 28.4397 45.2182 36.9674 36.3377 45.5371C50.9901 59.6603 65.6258 73.7667 80.2867 87.8899C79.9675 88.0831 79.707 88.0075 79.4634 88.0075C73.8174 88.0159 68.1715 88.0075 62.5256 88.0243C62.0299 88.0243 61.6686 87.8815 61.3158 87.5286C55.0397 81.3198 48.7553 75.1194 42.4709 68.9273C35.7075 62.2648 28.9442 55.6023 22.1725 48.9398C21.1643 47.9484 20.1729 46.9486 19.1311 45.9992C18.753 45.6463 18.7614 45.4531 19.1227 45.1002C23.9368 40.3701 28.7426 35.6316 33.5483 30.893C37.0014 27.4904 40.4713 24.0961 43.8991 20.6682C44.5545 20.0045 45.2182 19.7188 46.1676 19.7272C51.4774 19.7776 56.7957 19.7524 62.1055 19.7524C62.3576 19.7608 62.6012 19.7608 63.0633 19.7608Z" fill="#234187"/>
<path d="M270.416 19.769C269.543 20.7268 268.669 21.735 267.736 22.6844C266.257 24.1799 264.728 25.625 263.25 27.1205C262.678 27.6918 262.099 27.9775 261.242 27.9691C255.033 27.9271 248.824 27.9187 242.607 27.9607C240.019 27.9775 237.431 28.0783 234.894 28.6664C233.693 28.9437 232.533 29.3217 231.449 29.9182C229.332 31.0945 228.307 32.8924 228.307 35.3289C228.324 47.0072 228.307 58.6855 228.332 70.3638C228.332 71.1788 228.114 71.3552 227.333 71.3468C222.535 71.3132 217.738 71.3132 212.932 71.3468C212.352 71.3468 212.218 71.204 212.218 70.6327C212.235 57.6437 212.226 44.6632 212.235 31.6742C212.235 30.0527 212.42 28.448 212.915 26.9021C213.957 23.6338 216.385 21.8947 219.527 20.9705C222.325 20.1471 225.215 19.8783 228.114 19.8447C242.178 19.6682 256.243 19.8111 270.299 19.769C270.383 19.7606 270.458 19.7774 270.416 19.769Z" fill="#234187"/>
<path d="M136.183 156.162C137.225 154.649 138.519 153.616 140.241 153.196C141.736 152.835 143.24 152.801 144.736 153.171C146.777 153.675 147.987 155.036 148.475 157.044C148.794 158.371 148.92 159.724 148.92 161.085C148.92 163.757 148.895 166.42 148.937 169.092C148.945 169.756 148.735 169.924 148.113 169.882C147.374 169.831 146.626 169.84 145.878 169.882C145.374 169.907 145.232 169.756 145.232 169.243C145.257 166.319 145.24 163.395 145.248 160.463C145.248 159.665 145.223 158.867 145.038 158.094C144.425 155.574 141.031 154.725 138.93 156.557C137.594 157.724 136.939 159.195 136.931 160.959C136.922 163.706 136.914 166.454 136.939 169.201C136.948 169.73 136.813 169.924 136.267 169.89C135.502 169.84 134.729 169.848 133.957 169.89C133.444 169.924 133.301 169.747 133.31 169.243C133.335 166.933 133.326 164.622 133.318 162.312C133.31 161.236 133.276 160.161 133.226 159.085C133.091 156.22 130.596 154.733 127.991 156.01C126.118 156.935 125.017 158.489 124.942 160.564C124.832 163.412 124.883 166.26 124.9 169.109C124.9 169.697 124.782 169.94 124.143 169.89C123.429 169.831 122.707 169.848 121.993 169.89C121.497 169.915 121.337 169.764 121.346 169.251C121.371 166.739 121.362 164.219 121.354 161.707C121.346 159.094 121.32 156.481 121.085 153.868C121.043 153.406 121.085 153.154 121.657 153.196C122.371 153.246 123.093 153.246 123.807 153.196C124.337 153.162 124.463 153.389 124.463 153.86C124.463 154.422 124.521 154.977 124.563 155.7C126.202 153.666 128.277 152.944 130.663 152.944C133.083 152.944 135.082 153.708 136.183 156.162Z" fill="#494A4A"/>
<path d="M381.41 121.723C384.073 117.892 391.601 118.144 392.979 122.194C393.609 121.228 394.374 120.471 395.349 119.95C397.558 118.774 399.877 118.648 402.187 119.497C404.405 120.32 405.304 122.194 405.531 124.429C405.909 128.092 405.615 131.763 405.716 135.426C405.725 135.846 405.523 135.872 405.204 135.863C404.355 135.846 403.507 135.83 402.666 135.872C402.171 135.897 402.07 135.72 402.078 135.267C402.095 132.444 402.095 129.621 402.087 126.798C402.087 126.109 402.053 125.412 401.977 124.723C401.725 122.328 399.793 121.076 397.441 121.757C395.138 122.421 393.769 124.387 393.752 127.083C393.735 129.78 393.727 132.477 393.761 135.166C393.769 135.754 393.609 135.914 393.038 135.872C392.299 135.821 391.551 135.821 390.803 135.872C390.266 135.905 390.123 135.754 390.123 135.199C390.148 132.225 390.131 129.243 390.114 126.269C390.106 125.605 390.064 124.933 389.946 124.277C389.669 122.673 388.426 121.648 386.77 121.597C384.384 121.522 382.234 123.429 381.813 125.983C381.721 126.537 381.679 127.1 381.679 127.663C381.687 130.15 381.662 132.645 381.704 135.132C381.713 135.771 381.511 135.905 380.931 135.872C380.217 135.821 379.495 135.83 378.78 135.872C378.26 135.905 378.142 135.72 378.142 135.225C378.167 133.015 378.15 130.814 378.15 128.604C378.15 125.655 378.167 122.706 377.915 119.766C377.873 119.329 378.007 119.236 378.402 119.253C379.175 119.278 379.94 119.287 380.713 119.253C381.125 119.236 381.234 119.388 381.251 119.774C381.267 120.379 381.343 120.984 381.41 121.723Z" fill="#494949"/>
<path d="M290.463 155.809C290.463 155.515 290.454 155.33 290.463 155.154C290.505 154.523 290.185 153.692 290.597 153.305C291 152.927 291.824 153.204 292.462 153.196C293.714 153.179 293.722 153.188 293.714 154.423C293.706 159.119 293.722 163.816 293.672 168.512C293.655 170.016 293.512 171.528 292.891 172.948C291.824 175.41 289.757 176.46 287.278 176.796C284.094 177.233 280.943 176.956 277.843 176.082C277.331 175.939 277.104 175.746 277.23 175.191C277.39 174.444 277.348 173.671 277.6 172.881C279.608 173.822 281.691 174.267 283.859 174.368C284.657 174.41 285.447 174.351 286.228 174.192C288.723 173.671 290.11 172.142 290.303 169.588C290.362 168.89 290.311 168.176 290.311 167.437C286.757 171.159 279.986 170.319 277.331 166.983C274.97 164.009 274.911 158.094 278.289 155.019C281.212 152.364 286.993 151.894 290.463 155.809ZM279.364 161.614C279.389 164.874 281.683 167.311 284.682 167.277C287.883 167.244 290.269 164.757 290.269 161.463C290.269 158.212 287.824 155.582 284.808 155.59C281.708 155.599 279.339 158.22 279.364 161.614Z" fill="#494949"/>
<path d="M274.575 169.865C273.273 169.865 272.063 169.84 270.861 169.873C270.425 169.89 270.299 169.638 270.147 169.327C269.442 167.823 268.702 166.336 268.022 164.824C267.778 164.269 267.492 164.034 266.845 164.042C263.199 164.084 259.561 164.076 255.915 164.051C255.36 164.051 255.05 164.177 254.814 164.715C254.151 166.235 253.394 167.714 252.705 169.226C252.487 169.705 252.21 169.907 251.664 169.873C250.798 169.823 249.916 169.823 249.051 169.873C248.387 169.907 248.421 169.705 248.664 169.201C250.244 165.992 251.79 162.765 253.352 159.539C255.251 155.632 257.158 151.726 259.032 147.802C259.284 147.273 259.544 147.021 260.166 147.071C261.208 147.155 262.468 146.777 263.25 147.248C263.989 147.693 264.241 148.97 264.695 149.886C267.896 156.321 271.097 162.757 274.298 169.184C274.382 169.377 274.449 169.571 274.575 169.865ZM266.35 161.253C264.72 157.523 262.829 153.977 261.284 150.188C259.763 153.986 257.948 157.548 256.327 161.253C259.704 161.253 262.981 161.253 266.35 161.253Z" fill="#494A4A"/>
<path d="M70.1121 123.277C73.6744 120.043 77.1778 116.892 80.6477 113.708C81.0594 113.33 81.4627 113.178 82.0172 113.187C83.3867 113.22 84.7645 113.195 86.3188 113.195C84.1344 115.102 82.0928 116.875 80.0512 118.656C78.1944 120.269 76.3545 121.908 74.4725 123.487C73.9684 123.907 74.1028 124.092 74.5061 124.445C78.6649 128.108 82.807 131.78 86.949 135.451C87.0582 135.544 87.201 135.602 87.327 135.678C87.2934 135.737 87.2598 135.796 87.2178 135.854C85.5123 135.854 83.7983 135.854 82.0928 135.854C81.7567 135.854 81.6139 135.577 81.4207 135.392C77.7576 131.956 73.9432 128.671 70.4061 125.092C70.3389 125.025 70.2633 124.966 70.1541 124.874C70.1541 128.276 70.1205 131.595 70.1793 134.922C70.1961 135.72 69.9692 135.938 69.2131 135.863C68.4737 135.796 67.726 135.821 66.9782 135.863C66.5077 135.888 66.3733 135.754 66.3817 135.275C66.4153 133.712 66.3901 132.141 66.3901 130.578C66.3901 125.033 66.3985 119.488 66.3817 113.951C66.3817 113.372 66.4825 113.136 67.1211 113.187C67.8856 113.246 68.667 113.254 69.4315 113.187C70.0784 113.136 70.1793 113.397 70.1709 113.968C70.1289 116.968 70.2129 119.975 70.0784 122.975C70.0616 123.042 70.0868 123.109 70.1121 123.277Z" fill="#494949"/>
<path d="M241.438 121.681C241.438 118.388 241.447 115.153 241.43 111.927C241.43 111.499 241.548 111.347 241.985 111.364C242.749 111.398 243.522 111.406 244.295 111.364C244.841 111.331 244.967 111.515 244.967 112.045C244.95 117.665 244.934 123.286 244.967 128.898C244.976 131.024 245.102 133.15 245.211 135.275C245.236 135.746 245.127 135.905 244.64 135.88C243.9 135.838 243.152 135.83 242.405 135.88C241.85 135.914 241.607 135.788 241.674 135.174C241.733 134.595 241.691 133.998 241.691 133.234C239.968 135.326 237.792 136.141 235.288 136.141C232.802 136.141 230.592 135.41 228.878 133.528C226.374 130.789 225.963 124.824 229.13 121.497C230.836 119.707 232.886 118.984 235.322 118.993C237.775 118.993 239.8 119.85 241.438 121.681ZM235.263 133.427C238.103 133.452 239.725 132.545 240.724 130.646C241.565 129.058 241.607 127.353 241.178 125.639C240.59 123.253 238.271 121.513 235.843 121.589C233.339 121.673 231.314 123.471 230.852 125.983C230.701 126.823 230.684 127.672 230.743 128.512C230.953 131.537 232.97 133.427 235.263 133.427Z" fill="#494949"/>
<path d="M66.3905 158.506C66.3905 154.943 66.4073 151.373 66.3737 147.81C66.3737 147.256 66.4829 147.079 67.0794 147.088C70.23 147.113 73.389 147.004 76.5229 147.415C79.3374 147.793 81.6227 149.062 82.5552 151.927C83.8743 155.985 81.2446 159.85 76.8253 160.505C74.9097 160.791 72.9858 160.715 71.0702 160.69C70.3476 160.682 70.104 160.833 70.1208 161.606C70.1712 164.118 70.1208 166.63 70.1544 169.142C70.1628 169.705 70.0284 169.915 69.4319 169.873C68.6421 169.823 67.8439 169.823 67.0458 169.873C66.4997 169.907 66.3653 169.722 66.3737 169.192C66.3989 165.63 66.3905 162.068 66.3905 158.506ZM70.1376 154.036C70.1376 155.162 70.146 156.296 70.1292 157.422C70.1292 157.783 70.188 157.993 70.6249 157.993C72.238 157.985 73.8595 158.06 75.4474 157.699C76.9009 157.371 78.1864 156.724 78.6821 155.187C79.3626 153.095 78.346 151.213 76.254 150.49C74.3636 149.843 72.3976 150.07 70.4653 150.028C70.0368 150.02 70.1376 150.339 70.1376 150.574C70.1376 151.725 70.1376 152.876 70.1376 154.036Z" fill="#494949"/>
<path d="M108.037 127.579C108.037 132.108 104.853 135.603 100.249 136.182C97.5605 136.519 94.9896 136.283 92.6119 134.855C89.8225 133.175 88.4027 130.688 88.4615 127.462C88.5203 124.227 89.957 121.681 92.8723 120.135C96.4094 118.262 100.047 118.27 103.559 120.093C106.508 121.622 108.096 124.16 108.037 127.579ZM104.307 127.646C104.29 124.244 102.148 121.69 99.0224 121.345C96.2666 121.043 94.0402 122.253 92.8639 124.689C91.7297 127.025 92.2338 130.419 93.973 132.158C95.6029 133.78 98.4762 134.309 100.703 133.393C102.971 132.461 104.315 130.31 104.307 127.646Z" fill="#494A4A"/>
<path d="M345.182 132.116C345.182 133.057 345.174 133.872 345.191 134.696C345.191 134.956 345.123 135.124 344.863 135.225C341.561 136.544 338.167 136.855 334.806 135.637C330.597 134.108 328.975 130.612 329.362 126.277C329.866 120.715 334.823 118.514 339.083 118.833C340.587 118.943 342.006 119.304 343.267 120.178C345.207 121.513 345.947 123.538 346.384 125.714C346.518 126.386 346.527 127.092 346.611 127.773C346.678 128.31 346.485 128.462 345.938 128.462C341.83 128.436 337.73 128.47 333.622 128.428C332.882 128.42 332.857 128.646 333.025 129.243C333.924 132.436 336.923 134.2 340.477 133.662C342.09 133.402 343.611 132.931 345.182 132.116ZM337.957 125.95C339.444 125.95 340.931 125.958 342.418 125.941C342.662 125.941 343.048 126.076 342.964 125.563C342.687 123.958 342.04 122.48 340.511 121.791C337.31 120.346 333.983 121.942 333.059 125.286C332.924 125.773 333.017 125.975 333.588 125.958C335.033 125.924 336.495 125.95 337.957 125.95Z" fill="#494A4A"/>
<path d="M300.704 162.353C301.175 166.033 304.199 167.747 307.173 167.663C309.173 167.604 311.046 167.025 312.987 166.126C312.987 167.126 312.987 168.025 312.987 168.924C312.987 169.125 312.836 169.184 312.693 169.234C309.022 170.453 305.342 170.873 301.687 169.201C298.73 167.848 297.377 165.378 297.125 162.244C296.89 159.245 297.654 156.607 300.099 154.641C302.687 152.566 307.568 152.112 310.442 153.742C312.492 154.91 313.533 156.808 314.021 159.052C314.214 159.925 314.248 160.824 314.323 161.723C314.374 162.311 314.113 162.379 313.617 162.37C309.585 162.353 305.56 162.362 301.527 162.362C301.267 162.353 300.99 162.353 300.704 162.353ZM310.727 159.867C310.433 156.624 308.131 154.809 304.964 155.279C303.073 155.557 301.107 157.489 300.822 159.346C300.771 159.657 300.754 159.883 301.2 159.875C304.376 159.858 307.551 159.867 310.727 159.867Z" fill="#494949"/>
<path d="M108.054 170.234C104.971 170.234 102.467 169.562 100.442 167.562C96.7625 163.933 97.2078 157.749 101.367 154.683C105.206 151.851 111.583 152.137 114.91 155.313C117.414 157.699 118.094 160.639 117.229 163.899C116.364 167.168 114.053 169.049 110.852 169.89C109.836 170.15 108.794 170.276 108.054 170.234ZM101.778 161.496C101.778 163.311 102.24 164.975 103.61 166.227C105.458 167.924 107.634 168.302 109.962 167.428C112.432 166.495 113.692 164.58 113.793 162C113.885 159.404 113.02 157.161 110.566 155.909C106.744 153.943 101.703 156.38 101.778 161.496Z" fill="#494A4A"/>
<path d="M424.939 132.108C424.939 133.065 424.931 133.922 424.948 134.788C424.956 135.057 424.796 135.141 424.595 135.216C420.999 136.603 417.361 136.93 413.773 135.309C410.648 133.897 409.186 131.309 409.052 127.915C408.951 125.403 409.472 123.101 411.362 121.32C413.849 118.976 416.865 118.43 420.133 119.009C422.267 119.388 423.948 120.488 424.981 122.412C425.905 124.126 426.283 126 426.342 127.949C426.359 128.579 425.964 128.428 425.637 128.428C421.587 128.436 417.529 128.428 413.479 128.428C412.53 128.428 412.53 128.428 412.774 129.318C413.496 131.923 415.697 133.586 418.52 133.696C420.537 133.771 422.427 133.292 424.233 132.444C424.444 132.351 424.645 132.25 424.939 132.108ZM417.638 125.949C419.1 125.949 420.562 125.924 422.024 125.958C422.595 125.974 422.763 125.781 422.612 125.252C422.024 123.185 420.999 121.48 418.277 121.278C415.781 121.093 413.295 122.841 412.774 125.243C412.664 125.756 412.732 125.974 413.328 125.958C414.765 125.916 416.201 125.949 417.638 125.949Z" fill="#494A4A"/>
<path d="M264.736 132.116C264.736 132.654 264.736 133.065 264.736 133.469C264.736 135.107 264.753 135.158 263.165 135.653C260.393 136.519 257.561 136.653 254.764 135.813C250.89 134.645 248.672 131.142 248.824 126.974C249.042 120.984 254.15 118.455 258.687 118.841C261.292 119.06 263.459 120.026 264.778 122.395C265.753 124.135 266.03 126.059 266.064 128.025C266.072 128.604 265.661 128.445 265.367 128.445C261.367 128.453 257.36 128.453 253.361 128.453C252.319 128.453 252.319 128.453 252.621 129.444C253.579 132.545 256.595 134.217 260.065 133.662C261.661 133.385 263.174 132.889 264.736 132.116ZM257.461 125.949C258.948 125.949 260.435 125.949 261.913 125.949C262.174 125.949 262.552 126.042 262.451 125.563C262.123 123.958 261.527 122.437 259.931 121.757C256.814 120.429 253.377 121.925 252.512 125.353C252.378 125.874 252.529 125.966 253.008 125.958C254.486 125.932 255.973 125.949 257.461 125.949Z" fill="#494A4A"/>
<path d="M139.703 132.208C139.703 133.057 139.695 133.897 139.712 134.737C139.712 134.981 139.636 135.124 139.409 135.199C135.46 136.686 131.512 137.022 127.697 134.863C125.328 133.519 124.118 131.309 123.858 128.638C123.648 126.436 123.849 124.269 125.219 122.395C127.277 119.581 130.193 118.698 133.52 118.833C134.78 118.883 135.998 119.169 137.124 119.782C139.258 120.942 140.224 122.899 140.762 125.134C140.964 125.983 141.064 126.848 141.115 127.722C141.148 128.285 141.014 128.461 140.417 128.461C136.309 128.436 132.209 128.461 128.101 128.436C127.462 128.436 127.336 128.554 127.512 129.192C128.269 131.897 130.411 133.611 133.318 133.704C135.267 133.763 137.141 133.393 138.897 132.511C139.124 132.376 139.342 132.175 139.703 132.208ZM132.461 125.949C133.973 125.949 135.486 125.949 136.998 125.949C137.326 125.949 137.603 125.991 137.494 125.47C137.04 123.336 135.763 121.463 133.007 121.278C130.604 121.118 128.218 122.731 127.596 125.067C127.37 125.907 127.403 125.949 128.235 125.949C129.638 125.949 131.05 125.949 132.461 125.949Z" fill="#494A4A"/>
<path d="M205.925 152.733C207.345 152.75 208.857 153.044 210.328 153.641C214.512 155.33 215.839 159.303 215.595 162.345C215.293 166.092 212.672 169.033 208.882 169.881C205.791 170.57 202.732 170.469 199.977 168.747C196.793 166.764 195.625 163.756 196.12 160.102C196.566 156.749 199.221 154.002 202.732 153.103C203.715 152.851 204.732 152.742 205.925 152.733ZM199.741 161.614C199.767 165.185 202.447 167.932 205.858 167.865C209.345 167.798 211.899 165.143 211.882 161.606C211.857 157.884 209.269 155.195 205.74 155.229C202.338 155.271 199.716 158.06 199.741 161.614Z" fill="#494A4A"/>
<path d="M161.9 170.209C158.699 170.217 155.91 169.268 153.851 166.663C151.011 163.076 151.255 155.607 158.397 153.279C161.808 152.17 165.126 152.616 168.184 154.573C171.78 156.884 172.881 162.101 170.596 165.89C168.882 168.739 166.235 169.94 163.059 170.2C162.673 170.234 162.286 170.209 161.9 170.209ZM167.991 161.698C168.016 157.001 164.597 155.069 161.623 155.245C158.153 155.447 155.708 158.32 155.935 161.95C156.162 165.487 158.842 168.024 162.194 167.848C165.639 167.672 168.176 164.991 167.991 161.698Z" fill="#494A4A"/>
<path d="M145.92 123.143C145.887 123.059 145.853 123.009 145.853 122.967C145.626 119.934 145.122 120.597 147.92 119.648C150.634 118.732 153.406 118.682 156.137 119.673C158.019 120.354 159.212 121.639 159.489 123.689C159.649 124.832 159.733 125.983 159.75 127.134C159.792 129.848 159.607 132.57 159.892 135.283C159.943 135.771 159.792 135.905 159.313 135.872C158.624 135.83 157.926 135.83 157.237 135.872C156.75 135.905 156.658 135.72 156.616 135.267C156.557 134.611 156.683 133.956 156.616 133.141C155.515 134.695 154.12 135.611 152.406 135.93C150.172 136.342 147.945 136.308 145.929 135.09C142.745 133.158 142.753 129.201 145.92 127.251C147.752 126.126 149.81 125.89 151.886 125.731C153.163 125.638 154.448 125.647 155.734 125.722C156.162 125.748 156.305 125.655 156.246 125.168C155.986 123.109 154.843 121.942 152.785 121.69C150.919 121.463 148.861 121.606 145.92 123.143ZM153.902 128.008C151.768 127.974 150.222 128.226 149.096 128.755C147.895 129.318 147.323 130.15 147.399 131.234C147.466 132.234 148.264 133.091 149.474 133.418C150.659 133.746 151.852 133.746 153.028 133.41C155.078 132.822 156.624 130.41 156.313 128.335C156.263 127.982 156.044 128.016 155.818 128.016C155.187 127.999 154.549 128.008 153.902 128.008Z" fill="#494A4A"/>
<path d="M220.099 133.183C217.612 136.325 214.402 136.577 210.974 135.779C208.009 135.082 206.513 132.486 207.303 129.705C207.731 128.201 208.908 127.42 210.201 126.823C212.293 125.848 214.553 125.739 216.814 125.689C217.612 125.672 218.401 125.689 219.2 125.739C219.687 125.764 219.813 125.613 219.754 125.126C219.468 122.857 217.99 121.673 215.31 121.606C213.428 121.564 211.647 121.975 210.008 122.9C209.512 123.185 209.319 123.093 209.328 122.53C209.328 122.353 209.319 122.169 209.302 121.992C209.151 120.446 209.143 120.438 210.571 119.9C213.285 118.884 216.066 118.682 218.872 119.396C221.636 120.102 223.14 122.059 223.19 124.924C223.224 126.848 223.207 128.772 223.216 130.696C223.216 132.259 223.174 133.83 223.367 135.384C223.409 135.746 223.35 135.888 222.947 135.872C222.182 135.838 221.409 135.838 220.636 135.872C220.208 135.888 220.107 135.704 220.115 135.334C220.107 134.662 220.099 133.998 220.099 133.183ZM214.528 133.645C217.965 133.662 219.611 131.662 219.83 128.545C219.855 128.142 219.754 127.991 219.342 127.999C218.04 128.025 216.73 127.957 215.427 128.05C214.285 128.134 213.15 128.386 212.142 128.982C210.479 129.974 210.428 131.889 212.016 132.998C212.831 133.57 213.781 133.595 214.528 133.645Z" fill="#494A4A"/>
<path d="M362.162 166.815C363.128 163.815 364.406 160.992 365.523 158.111C366.086 156.657 366.716 155.229 367.262 153.767C367.439 153.288 367.691 153.162 368.161 153.179C369.085 153.213 370.001 153.187 371.051 153.187C370.514 154.473 370.009 155.683 369.505 156.892C367.413 161.891 365.33 166.899 363.221 171.898C362.524 173.553 361.633 175.048 360.011 175.989C358.256 177.006 356.407 177.014 354.5 176.67C354.265 176.628 354.214 176.493 354.223 176.292C354.231 176.09 354.231 175.88 354.256 175.679C354.307 175.191 354.198 174.586 354.458 174.267C354.718 173.948 355.29 174.351 355.743 174.376C357.6 174.477 358.944 173.603 359.911 171.688C360.28 170.957 360.322 170.327 359.986 169.537C357.743 164.353 355.567 159.136 353.349 153.935C353.097 153.347 353.131 153.086 353.836 153.187C353.912 153.196 353.987 153.187 354.063 153.187C355.029 153.238 356.214 152.818 356.911 153.339C357.558 153.834 357.726 154.985 358.062 155.867C359.264 159.018 360.675 162.093 361.725 165.302C361.885 165.798 362.011 166.294 362.162 166.815Z" fill="#494A4A"/>
<path d="M433.459 121.757C434.668 120.27 436.181 119.43 437.987 119.152C439.541 118.917 441.113 118.892 442.65 119.287C445.011 119.9 446.498 121.807 446.792 124.622C447.17 128.226 446.884 131.856 446.977 135.468C446.985 135.846 446.809 135.872 446.515 135.872C445.717 135.863 444.918 135.83 444.129 135.88C443.574 135.922 443.507 135.678 443.515 135.216C443.532 132.755 443.541 130.293 443.515 127.823C443.507 126.932 443.431 126.033 443.331 125.143C443.028 122.463 440.709 121.354 438.533 121.639C435.727 122 433.853 123.992 433.761 126.873C433.677 129.646 433.702 132.419 433.719 135.183C433.719 135.712 433.593 135.905 433.047 135.872C432.308 135.821 431.551 135.804 430.82 135.872C430.19 135.93 430.106 135.67 430.123 135.132C430.157 133.872 430.123 132.62 430.14 131.36C430.19 127.613 430.014 123.874 429.88 120.135C429.854 119.488 429.947 119.144 430.711 119.236C431.367 119.312 432.047 119.27 432.711 119.245C433.114 119.228 433.24 119.388 433.265 119.774C433.282 120.404 433.207 121.043 433.459 121.757Z" fill="#494949"/>
<path d="M294.554 121.648C294.839 121.681 294.898 121.471 295.007 121.354C297.251 118.985 302.006 118.203 304.93 119.699C306.971 120.749 307.786 122.597 308.038 124.698C308.458 128.243 308.215 131.822 308.274 135.385C308.282 135.746 308.173 135.88 307.795 135.872C306.946 135.847 306.098 135.83 305.257 135.88C304.745 135.905 304.678 135.695 304.678 135.259C304.695 132.612 304.686 129.974 304.686 127.327C304.686 126.79 304.678 126.252 304.636 125.714C304.333 121.925 301.267 121.144 298.864 121.816C296.453 122.488 295.083 124.353 294.957 126.916C294.814 129.68 294.814 132.452 294.848 135.225C294.856 135.779 294.697 135.922 294.159 135.889C293.419 135.838 292.672 135.847 291.924 135.889C291.42 135.914 291.277 135.754 291.285 135.25C291.294 131.789 291.235 128.327 291.26 124.857C291.269 123.16 291.117 121.48 291.075 119.783C291.067 119.354 291.168 119.245 291.571 119.262C292.344 119.287 293.109 119.287 293.882 119.262C294.293 119.245 294.411 119.413 294.428 119.791C294.428 120.404 294.503 121.026 294.554 121.648Z" fill="#494A4A"/>
<path d="M321.465 155.775C323.783 153.078 326.69 152.599 329.866 153.095C332.731 153.54 334.47 155.456 334.848 158.337C335.084 160.127 334.991 161.925 335.008 163.714C335.025 165.563 335 167.411 335.025 169.26C335.033 169.713 334.932 169.907 334.437 169.881C333.723 169.839 333 169.839 332.286 169.881C331.748 169.915 331.597 169.755 331.597 169.209C331.622 166.647 331.605 164.076 331.588 161.513C331.58 160.639 331.513 159.774 331.336 158.917C330.891 156.766 329.732 155.741 327.539 155.607C324.632 155.422 322.355 157.254 321.893 160.135C321.733 161.102 321.75 162.076 321.75 163.051C321.75 165.101 321.733 167.159 321.767 169.209C321.775 169.755 321.616 169.915 321.078 169.881C320.339 169.839 319.591 169.831 318.843 169.881C318.247 169.923 318.053 169.755 318.062 169.125C318.095 166.101 318.079 163.068 318.079 160.043C318.079 157.968 318.062 155.884 317.919 153.817C317.885 153.38 317.936 153.162 318.465 153.196C319.255 153.246 320.053 153.221 320.851 153.204C321.179 153.196 321.288 153.305 321.296 153.641C321.322 154.288 321.397 154.952 321.465 155.775Z" fill="#494A4A"/>
<path d="M222.636 155.699C223.09 155.279 223.426 154.893 223.829 154.607C226.744 152.54 229.895 152.347 233.071 153.767C234.986 154.624 235.659 156.497 235.944 158.48C236.474 162.101 236.146 165.748 236.247 169.386C236.255 169.755 236.129 169.881 235.759 169.873C234.936 169.856 234.113 169.839 233.298 169.881C232.81 169.906 232.693 169.738 232.701 169.276C232.726 167.016 232.735 164.765 232.701 162.505C232.684 161.303 232.676 160.093 232.449 158.909C232.029 156.682 230.71 155.607 228.433 155.598C225.35 155.59 223.165 157.724 223.014 160.807C222.888 163.546 222.854 166.294 222.905 169.033C222.922 169.772 222.678 169.948 222.006 169.89C221.367 169.839 220.72 169.839 220.082 169.89C219.527 169.932 219.334 169.78 219.334 169.184C219.351 165.462 219.334 161.748 219.292 158.026C219.275 156.59 219.217 155.162 219.124 153.725C219.099 153.296 219.217 153.187 219.611 153.204C220.384 153.229 221.149 153.229 221.922 153.204C222.325 153.187 222.46 153.33 222.476 153.725C222.502 154.338 222.577 154.968 222.636 155.699Z" fill="#494A4A"/>
<path d="M184.366 125.974C184.366 129.033 184.349 132.082 184.383 135.141C184.391 135.771 184.198 135.913 183.618 135.88C182.854 135.829 182.073 135.821 181.308 135.88C180.711 135.922 180.594 135.72 180.594 135.157C180.619 129.822 180.611 124.479 180.611 119.144C180.611 118.32 180.577 117.497 180.619 116.682C180.644 116.153 180.501 115.985 179.947 115.993C177.636 116.027 175.326 115.993 173.016 116.018C172.486 116.027 172.285 115.909 172.335 115.355C172.402 114.674 172.125 113.767 172.478 113.355C172.839 112.918 173.772 113.221 174.461 113.221C180.233 113.212 186.013 113.221 191.785 113.204C192.381 113.204 192.608 113.338 192.533 113.952C192.457 114.607 192.801 115.472 192.407 115.876C192.012 116.287 191.146 115.993 190.483 115.993C188.634 116.01 186.786 116.018 184.938 115.985C184.459 115.976 184.341 116.111 184.341 116.581C184.375 119.707 184.366 122.841 184.366 125.974Z" fill="#494949"/>
<path d="M310.273 119.253C311.441 119.253 312.592 119.261 313.735 119.244C314.054 119.236 314.188 119.379 314.289 119.648C315.961 123.907 317.809 128.091 319.372 132.418C319.7 131.981 319.767 131.419 319.969 130.914C321.473 127.192 322.968 123.471 324.464 119.74C324.59 119.421 324.724 119.236 325.111 119.244C326.11 119.27 327.11 119.253 328.202 119.253C327.715 120.446 327.261 121.58 326.799 122.706C325.077 126.865 323.338 131.015 321.641 135.182C321.414 135.737 321.145 135.897 320.574 135.871C319.624 135.821 318.675 135.855 317.725 135.863C317.423 135.863 317.213 135.829 317.07 135.485C314.827 130.158 312.558 124.848 310.307 119.53C310.29 119.463 310.29 119.387 310.273 119.253Z" fill="#494A4A"/>
<path d="M462.058 132.998C462.058 133.452 462.058 133.813 462.058 134.166C462.058 135.771 462.058 135.779 460.461 135.998C459.47 136.132 458.487 136.183 457.479 136.048C454.765 135.678 453.328 134.191 453.118 131.461C452.883 128.487 453.026 125.512 453.018 122.547C453.018 121.9 452.85 121.715 452.211 121.749C451.186 121.807 450.161 121.749 449.136 121.774C448.775 121.782 448.666 121.673 448.649 121.295C448.556 119.262 448.539 119.262 450.573 119.262C451.211 119.262 451.858 119.236 452.497 119.27C452.917 119.295 453.018 119.127 453.009 118.741C452.984 117.842 453.018 116.943 452.992 116.052C452.984 115.674 453.043 115.456 453.48 115.346C454.521 115.094 455.538 114.758 456.664 114.431C456.664 115.867 456.689 117.237 456.647 118.606C456.63 119.161 456.798 119.287 457.328 119.27C458.605 119.228 459.89 119.27 461.176 119.253C461.554 119.245 461.705 119.346 461.722 119.766C461.814 121.765 461.823 121.765 459.823 121.765C458.924 121.765 458.025 121.782 457.134 121.757C456.765 121.749 456.655 121.866 456.655 122.236C456.672 124.958 456.613 127.672 456.681 130.394C456.74 132.839 458.327 133.914 460.865 133.334C461.251 133.234 461.612 133.116 462.058 132.998Z" fill="#494A4A"/>
<path d="M369.337 114.422C369.337 115.901 369.362 117.287 369.329 118.665C369.32 119.144 369.446 119.279 369.925 119.262C371.236 119.228 372.538 119.27 373.849 119.237C374.328 119.228 374.445 119.371 374.454 119.841C374.479 121.749 374.496 121.749 372.622 121.749C371.698 121.749 370.774 121.765 369.849 121.74C369.455 121.732 369.32 121.841 369.329 122.253C369.387 125.101 369.236 127.941 369.471 130.789C369.639 132.805 371.118 133.771 373.42 133.36C373.882 133.276 374.479 132.847 374.764 133.141C375.016 133.393 374.848 134.065 374.848 134.553C374.857 135.67 374.848 135.67 373.672 135.897C372.303 136.166 370.933 136.25 369.555 135.905C367.253 135.326 366.195 134.099 365.926 131.738C365.657 129.411 365.842 127.075 365.791 124.74C365.775 124.025 365.733 123.295 365.808 122.589C365.884 121.841 365.573 121.698 364.918 121.74C363.968 121.791 363.019 121.732 362.069 121.765C361.591 121.782 361.406 121.681 361.406 121.144C361.406 119.253 361.381 119.253 363.263 119.253C363.901 119.253 364.548 119.211 365.187 119.262C365.724 119.304 365.825 119.085 365.808 118.606C365.775 117.707 365.808 116.808 365.791 115.909C365.783 115.582 365.875 115.422 366.228 115.33C367.237 115.078 368.236 114.75 369.337 114.422Z" fill="#494949"/>
<path d="M185.879 166.941C185.879 167.748 185.862 168.487 185.887 169.226C185.896 169.537 185.728 169.621 185.492 169.68C183.753 170.1 181.997 170.243 180.241 169.806C178.099 169.268 177.049 167.79 176.981 165.118C176.914 162.245 176.906 159.371 176.923 156.498C176.931 155.843 176.746 155.675 176.116 155.708C175.091 155.767 174.066 155.708 173.041 155.733C172.629 155.742 172.537 155.599 172.529 155.204C172.47 153.288 172.461 153.288 174.36 153.288C175.049 153.288 175.746 153.272 176.435 153.297C176.805 153.305 176.923 153.171 176.914 152.81C176.897 151.885 176.923 150.961 176.897 150.037C176.889 149.642 177.007 149.449 177.41 149.34C178.275 149.121 179.141 148.869 179.981 148.575C180.451 148.407 180.493 148.584 180.485 148.978C180.468 150.213 180.51 151.44 180.468 152.675C180.451 153.204 180.636 153.314 181.123 153.297C182.384 153.263 183.636 153.305 184.896 153.28C185.316 153.272 185.459 153.381 185.475 153.835C185.526 155.725 185.543 155.725 183.644 155.725C182.745 155.725 181.846 155.733 180.947 155.725C180.653 155.725 180.468 155.75 180.476 156.128C180.561 159.153 180.308 162.177 180.636 165.202C180.771 166.412 181.518 167.118 182.711 167.311C183.778 167.47 184.803 167.302 185.879 166.941Z" fill="#494A4A"/>
<path d="M349.039 132.477C350.635 133.099 352.156 133.611 353.811 133.527C354.634 133.485 355.433 133.326 356.172 132.939C357.525 132.225 357.6 130.788 356.323 129.965C355.18 129.226 353.903 128.747 352.685 128.159C351.921 127.789 351.198 127.36 350.501 126.89C347.938 125.168 348.526 121.916 350.45 120.387C351.408 119.631 352.517 119.253 353.693 119.102C355.643 118.85 357.575 118.984 359.482 119.496C359.869 119.597 359.986 119.749 359.902 120.135C359.751 120.807 359.827 121.513 359.591 122.21C358.146 121.58 356.659 121.412 355.13 121.521C354.391 121.572 353.727 121.799 353.181 122.311C352.349 123.092 352.45 124.319 353.425 124.924C354.424 125.546 355.491 126.05 356.575 126.503C357.382 126.84 358.146 127.243 358.902 127.68C362.137 129.536 361.221 133.477 358.911 134.93C357.415 135.88 355.752 136.224 354.004 136.216C352.509 136.207 351.055 135.93 349.635 135.468C349.207 135.334 348.997 135.149 349.03 134.661C349.072 133.989 349.039 133.292 349.039 132.477Z" fill="#494A4A"/>
<path d="M352.526 166.361C352.593 167.084 352.593 167.789 352.744 168.453C352.895 169.151 352.551 169.302 352.005 169.47C348.888 170.386 345.804 170.369 342.88 168.915C339.621 167.302 337.999 164.11 338.402 160.539C338.78 157.111 341.301 154.313 344.813 153.414C347.123 152.826 349.417 152.902 351.719 153.481C352.173 153.599 352.374 153.75 352.282 154.254C352.173 154.809 352.122 155.372 352.114 155.935C352.106 156.43 351.946 156.363 351.568 156.229C349.241 155.422 346.93 155.38 344.762 156.699C342.553 158.044 341.704 160.463 342.368 163.202C342.889 165.353 344.956 167.05 347.317 167.285C348.216 167.378 349.106 167.403 349.997 167.277C350.896 167.159 351.66 166.647 352.526 166.361Z" fill="#494A4A"/>
<path d="M281.708 124.504C281.708 120.967 281.725 117.43 281.691 113.893C281.683 113.305 281.851 113.153 282.414 113.187C283.204 113.237 284.002 113.229 284.8 113.187C285.304 113.162 285.438 113.321 285.438 113.826C285.413 117.312 285.43 120.799 285.43 124.286C285.43 127.898 285.413 131.519 285.447 135.132C285.455 135.754 285.262 135.905 284.682 135.871C283.918 135.821 283.145 135.821 282.38 135.871C281.834 135.905 281.7 135.737 281.708 135.199C281.716 131.637 281.708 128.075 281.708 124.504Z" fill="#494949"/>
<path d="M89.1841 155.876C90.1587 154.624 91.3265 153.759 92.7884 153.297C93.9058 152.935 95.0568 153.003 96.2079 153.137C96.5187 153.171 96.6616 153.297 96.6531 153.624C96.6363 154.288 96.6363 154.96 96.6531 155.624C96.6616 155.952 96.5943 156.078 96.2163 155.985C92.4691 155.095 89.705 157.783 89.663 161.488C89.6378 164.026 89.6126 166.563 89.6462 169.1C89.6546 169.764 89.4445 169.932 88.8228 169.89C88.1087 169.84 87.3861 169.848 86.672 169.89C86.1343 169.924 85.9746 169.755 85.9746 169.209C85.9998 166.571 85.9914 163.925 85.983 161.287C85.9746 158.8 86.0251 156.313 85.815 153.834C85.773 153.297 85.9326 153.171 86.4283 153.196C87.1425 153.229 87.865 153.238 88.5792 153.196C89.0665 153.171 89.2093 153.364 89.1925 153.809C89.1673 154.49 89.1841 155.187 89.1841 155.876Z" fill="#494A4A"/>
<path d="M198.246 122.093C199.96 119.455 202.287 118.8 205.043 119.152C205.471 119.211 205.715 119.329 205.623 119.808C205.614 119.833 205.623 119.858 205.623 119.883C205.614 120.547 205.85 121.37 205.547 121.841C205.203 122.362 204.388 121.824 203.766 121.841C201.094 121.917 198.943 123.908 198.708 126.689C198.465 129.478 198.633 132.276 198.624 135.074C198.624 135.712 198.473 135.922 197.826 135.872C197.087 135.813 196.339 135.821 195.6 135.872C195.07 135.905 194.969 135.712 194.978 135.225C194.995 131.814 195.003 128.403 194.978 124.983C194.969 123.269 194.902 121.547 194.818 119.833C194.793 119.346 194.936 119.211 195.406 119.236C196.12 119.278 196.843 119.278 197.557 119.236C198.053 119.203 198.162 119.404 198.154 119.858C198.137 120.539 198.204 121.219 198.246 122.093Z" fill="#494949"/>
<path d="M115.077 122.009C115.506 121.513 115.842 121.068 116.237 120.681C117.875 119.068 119.883 118.883 122.026 119.177C122.395 119.228 122.513 119.388 122.471 119.724C122.463 119.774 122.471 119.824 122.471 119.875C122.463 120.539 122.698 121.362 122.395 121.832C122.051 122.362 121.227 121.824 120.614 121.841C118.01 121.916 116.035 123.748 115.523 126.613C115.246 128.192 115.414 129.789 115.38 131.368C115.355 132.679 115.355 133.981 115.38 135.292C115.388 135.712 115.296 135.88 114.842 135.863C114.052 135.83 113.246 135.804 112.456 135.872C111.86 135.914 111.818 135.645 111.818 135.166C111.826 131.444 111.826 127.73 111.801 124.008C111.792 122.622 111.725 121.244 111.65 119.866C111.624 119.404 111.734 119.219 112.229 119.245C112.943 119.287 113.666 119.278 114.38 119.245C114.783 119.228 114.909 119.362 114.926 119.757C114.951 120.471 115.019 121.185 115.077 122.009Z" fill="#494949"/>
<path d="M188.861 161.505C188.861 158.968 188.878 156.431 188.853 153.885C188.845 153.364 188.962 153.154 189.525 153.188C190.365 153.23 191.214 153.213 192.062 153.196C192.432 153.188 192.541 153.305 192.541 153.675C192.533 158.909 192.533 164.143 192.541 169.369C192.541 169.789 192.398 169.89 192.004 169.873C191.18 169.848 190.357 169.831 189.542 169.873C189.004 169.898 188.845 169.739 188.853 169.193C188.878 166.63 188.861 164.068 188.861 161.505Z" fill="#494A4A"/>
<path d="M273.281 126.185C274.692 126.185 276.104 126.193 277.507 126.176C277.935 126.168 278.137 126.243 278.146 126.756C278.188 128.798 278.204 128.798 276.137 128.798C273.751 128.798 271.374 128.781 268.988 128.806C268.492 128.814 268.223 128.739 268.29 128.159C268.366 127.529 268.022 126.706 268.425 126.311C268.82 125.916 269.643 126.21 270.273 126.193C271.281 126.168 272.281 126.185 273.281 126.185Z" fill="#494A4A"/>
<path d="M190.432 149.255C189.945 149.196 189.139 149.524 188.786 149.121C188.492 148.785 188.685 148.003 188.676 147.415C188.668 145.861 188.676 145.861 190.206 145.861C190.819 145.861 191.441 145.878 192.054 145.853C192.432 145.836 192.608 145.92 192.592 146.348C192.558 147.163 192.575 147.987 192.592 148.81C192.6 149.138 192.499 149.272 192.155 149.255C191.625 149.238 191.088 149.255 190.432 149.255Z" fill="#494949"/>
</svg>
